<svg width="60" height="59" viewBox="0 0 60 59" fill="none" xmlns="http://www.w3.org/2000/svg">
<path d="M10.625 0H49.375C55.25 0 60 4.7906 60 10.7158V48.2842C60 54.2094 55.25 59 49.375 59H10.625C4.75 59 0 54.2094 0 48.2842V10.7158C0 4.7906 4.75 0 10.625 0Z" fill="#470137"/>
<path d="M31.55 15.5064L24.05 27.9872L32.05 41.2243C32.1 41.3252 32.125 41.426 32.1 41.5269C32.075 41.6278 31.975 41.5521 31.825 41.5773H26.1C25.7 41.5773 25.425 41.5521 25.25 41.3C24.725 40.241 24.175 39.2072 23.65 38.1483C23.125 37.1145 22.55 36.0555 21.95 34.9713C21.35 33.8872 20.75 32.803 20.15 31.6936H20.1C19.575 32.7777 19 33.8619 18.425 34.9461C17.85 36.0303 17.275 37.1145 16.725 38.1735C16.15 39.2325 15.575 40.3166 15 41.3504C14.9 41.6025 14.7 41.6278 14.425 41.6278H8.925C8.825 41.6278 8.75 41.6782 8.75 41.5521C8.725 41.4513 8.75 41.3504 8.8 41.2748L16.575 28.4158L9 15.4812C8.925 15.3803 8.9 15.2795 8.95 15.229C9 15.1534 9.1 15.1282 9.2 15.1282H14.875C15 15.1282 15.125 15.1534 15.225 15.1786C15.325 15.229 15.4 15.3047 15.475 15.4055C15.95 16.4897 16.5 17.5739 17.075 18.6581C17.675 19.7423 18.25 20.8013 18.875 21.8602C19.475 22.9192 20.025 23.9782 20.55 25.0624H20.6C21.125 23.953 21.675 22.8688 22.225 21.8098C22.775 20.7508 23.35 19.6919 23.925 18.6329C24.5 17.5739 25.05 16.4897 25.6 15.456C25.625 15.3551 25.675 15.2542 25.75 15.2038C25.85 15.1534 25.95 15.1282 26.075 15.1534H31.35C31.475 15.1282 31.6 15.2038 31.625 15.3299C31.65 15.3551 31.6 15.456 31.55 15.5064Z" fill="#FF61F6"/>
<path d="M43.1 42.1068C41.25 42.132 39.4 41.7538 37.725 40.9722C36.15 40.241 34.85 39.0307 33.95 37.5431C33.025 36.0051 32.575 34.0889 32.575 31.7944C32.55 29.9286 33.025 28.088 33.95 26.4743C34.9 24.8354 36.275 23.4739 37.925 22.5662C39.675 21.5829 41.775 21.1038 44.25 21.1038C44.375 21.1038 44.55 21.1038 44.775 21.129C45 21.1542 45.25 21.1542 45.55 21.1795V13.2119C45.55 13.0354 45.625 12.9346 45.8 12.9346H50.875C51 12.9094 51.1 13.0102 51.125 13.1111C51.125 13.1363 51.125 13.1615 51.125 13.1615V37.1649C51.125 37.6188 51.15 38.123 51.175 38.6777C51.225 39.2072 51.25 39.7115 51.275 40.1401C51.275 40.3166 51.2 40.4679 51.025 40.5436C49.725 41.0983 48.35 41.5017 46.95 41.7538C45.675 41.9807 44.4 42.1068 43.1 42.1068ZM45.55 37.0641V25.9701C45.325 25.9196 45.1 25.8692 44.875 25.844C44.6 25.8188 44.325 25.7936 44.05 25.7936C43.075 25.7936 42.1 25.9953 41.225 26.4491C40.375 26.8777 39.65 27.5081 39.1 28.3149C38.55 29.1218 38.275 30.206 38.275 31.5171C38.25 32.3995 38.4 33.282 38.7 34.1141C38.95 34.7948 39.325 35.4 39.825 35.9042C40.3 36.3581 40.875 36.7111 41.525 36.9128C42.2 37.1397 42.9 37.2406 43.6 37.2406C43.975 37.2406 44.325 37.2154 44.65 37.1901C44.975 37.2154 45.25 37.1649 45.55 37.0641Z" fill="#FF61F6"/>
</svg>
