<svg width="60" height="58" viewBox="0 0 60 58" fill="none" xmlns="http://www.w3.org/2000/svg">
<g clip-path="url(#clip0)">
<path d="M2.49998 2.48401H57.5001V55.516H2.49998V2.48401Z" fill="url(#paint0_radial)"/>
<path d="M2.49997 2.48456H57.5001V55.5166H2.49997V2.48456ZM0 57.9948H60.0001V0.00646973H0V57.9948ZM40.4501 23.7965C38.475 23.7965 37.8001 24.7877 37.8001 25.6055C37.8001 26.4976 38.2501 27.1171 40.9001 28.4801C44.8251 30.3636 46.0501 32.1725 46.0501 34.8242C46.0501 38.7892 43.0001 40.9204 38.8751 40.9204C36.7001 40.9204 34.825 40.4743 33.7501 39.8548C33.5751 39.7805 33.5501 39.6566 33.5501 39.4583V35.8154C33.5501 35.5676 33.6751 35.4932 33.8502 35.6172C35.4251 36.6333 37.2251 37.0793 38.8751 37.0793C40.8501 37.0793 41.6751 36.2615 41.6751 35.1463C41.6751 34.2542 41.1001 33.4612 38.575 32.1725C35.025 30.4874 33.5501 28.7776 33.5501 25.9277C33.5501 22.7308 36.0752 20.0793 40.4501 20.0793C42.6001 20.0793 44.1001 20.4015 44.9251 20.7732C45.1251 20.8971 45.1751 21.0953 45.1751 21.2687V24.6637C45.1751 24.8619 45.0501 24.9859 44.8 24.9115C43.7001 24.2178 42.0751 23.7965 40.4501 23.7965V23.7965ZM18.95 26.7455C19.525 26.795 19.9751 26.795 20.975 26.795C23.9002 26.795 26.6501 25.779 26.6501 21.8388C26.6501 18.6916 24.6751 17.1056 21.3501 17.1056C20.3501 17.1056 19.4001 17.1551 18.95 17.1799V26.7455ZM14.5001 13.5866C14.5001 13.4131 14.8501 13.2891 15.05 13.2891C16.6501 13.2148 19.0251 13.1653 21.5001 13.1653C28.4251 13.1653 31.125 16.932 31.125 21.7396C31.125 28.034 26.525 30.7352 20.8751 30.7352C19.9251 30.7352 19.6001 30.6857 18.925 30.6857V40.2017C18.925 40.3999 18.85 40.499 18.6251 40.499H14.8001C14.6001 40.499 14.5 40.4247 14.5 40.2017V13.5866H14.5001Z" fill="#31C5F0"/>
</g>
<defs>
<radialGradient id="paint0_radial" cx="0" cy="0" r="1" gradientUnits="userSpaceOnUse" gradientTransform="translate(20.6143 14.3685) scale(41.8001 40.116)">
<stop stop-color="#34364E" stop-opacity="0.98"/>
<stop offset="1" stop-color="#0C0824"/>
</radialGradient>
<clipPath id="clip0">
<rect width="60" height="58" fill="white"/>
</clipPath>
</defs>
</svg>
