<svg width="60" height="58" viewBox="0 0 60 58" fill="none" xmlns="http://www.w3.org/2000/svg">
<path d="M10.625 0H49.375C55.25 0 60 4.7094 60 10.5342V47.4658C60 53.2906 55.25 58 49.375 58H10.625C4.75 58 0 53.2906 0 47.4658V10.5342C0 4.7094 4.75 0 10.625 0Z" fill="#001E36"/>
<path d="M13.5 40.6743V15.1692C13.5 14.9957 13.575 14.8965 13.75 14.8965C14.175 14.8965 14.575 14.8965 15.15 14.8717C15.75 14.8469 16.375 14.8469 17.05 14.8222C17.725 14.7974 18.45 14.7974 19.225 14.7726C20 14.7478 20.75 14.7478 21.5 14.7478C23.55 14.7478 25.25 14.9957 26.65 15.5162C27.9 15.9375 29.05 16.6316 30 17.5487C30.8 18.3418 31.425 19.3085 31.825 20.3743C32.2 21.4153 32.4 22.4811 32.4 23.5965C32.4 25.7281 31.9 27.488 30.9 28.876C29.9 30.264 28.5 31.3051 26.875 31.8999C25.175 32.5196 23.3 32.7427 21.25 32.7427C20.65 32.7427 20.25 32.7427 20 32.7179C19.75 32.6931 19.4 32.6931 18.925 32.6931V40.6495C18.95 40.823 18.825 40.9717 18.65 40.9965C18.625 40.9965 18.6 40.9965 18.55 40.9965H13.8C13.6 40.9965 13.5 40.8974 13.5 40.6743ZM18.95 19.6803V28.0085C19.3 28.0333 19.625 28.0581 19.925 28.0581H21.25C22.225 28.0581 23.2 27.9093 24.125 27.6119C24.925 27.3888 25.625 26.9179 26.175 26.2982C26.7 25.6786 26.95 24.8358 26.95 23.7452C26.975 22.9769 26.775 22.2085 26.375 21.5393C25.95 20.8948 25.35 20.3991 24.625 20.1264C23.7 19.7546 22.7 19.6059 21.675 19.6307C21.025 19.6307 20.45 19.6307 19.975 19.6555C19.475 19.6307 19.125 19.6555 18.95 19.6803Z" fill="#31A8FF"/>
<path d="M48 26.4965C47.25 26.0999 46.45 25.8273 45.6 25.6537C44.675 25.4555 43.75 25.3315 42.8 25.3315C42.3 25.3067 41.775 25.3811 41.3 25.505C40.975 25.5794 40.7 25.7529 40.525 26.0008C40.4 26.199 40.325 26.4469 40.325 26.67C40.325 26.8931 40.425 27.1161 40.575 27.3144C40.8 27.5871 41.1 27.8102 41.425 27.9837C42 28.2811 42.6 28.5537 43.2 28.8016C44.55 29.2478 45.85 29.8674 47.05 30.611C47.875 31.1315 48.55 31.8255 49.025 32.6683C49.425 33.4614 49.625 34.329 49.6 35.2213C49.625 36.3862 49.275 37.5512 48.625 38.5179C47.925 39.5093 46.95 40.2777 45.825 40.7238C44.6 41.2444 43.1 41.517 41.3 41.517C40.15 41.517 39.025 41.4179 37.9 41.1948C37.025 41.0461 36.15 40.7734 35.35 40.4016C35.175 40.3025 35.05 40.129 35.075 39.9307V35.6179C35.075 35.5435 35.1 35.4444 35.175 35.3948C35.25 35.3452 35.325 35.37 35.4 35.4196C36.375 35.9896 37.4 36.3862 38.5 36.6341C39.45 36.882 40.45 37.0059 41.45 37.0059C42.4 37.0059 43.075 36.882 43.525 36.6589C43.925 36.4854 44.2 36.064 44.2 35.6179C44.2 35.2708 44 34.9486 43.6 34.6264C43.2 34.3042 42.375 33.9324 41.15 33.4614C39.875 33.0153 38.7 32.4204 37.6 31.6768C36.825 31.1315 36.175 30.4127 35.7 29.57C35.3 28.7768 35.1 27.9093 35.125 27.0418C35.125 25.976 35.425 24.9597 35.975 24.0426C36.6 23.0512 37.525 22.258 38.6 21.7623C39.775 21.1674 41.25 20.8948 43.025 20.8948C44.05 20.8948 45.1 20.9691 46.125 21.1179C46.875 21.217 47.6 21.4153 48.275 21.6879C48.375 21.7127 48.475 21.8119 48.525 21.911C48.55 22.0102 48.575 22.1093 48.575 22.2084V26.2486C48.575 26.3478 48.525 26.4469 48.45 26.4965C48.225 26.5461 48.1 26.5461 48 26.4965Z" fill="#31A8FF"/>
</svg>
