<svg width="60" height="58" viewBox="0 0 60 58" fill="none" xmlns="http://www.w3.org/2000/svg">
<path d="M49.3752 58H10.6248C4.7496 58 0 53.291 0 47.466V10.534C0 4.70901 4.7496 0 10.6248 0H49.3752C55.2504 0 60 4.70901 60 10.534V47.466C60 53.291 55.2504 58 49.3752 58Z" fill="#FF26BE"/>
<path d="M48.4248 55.5205H11.5752C6.576 55.5205 2.5008 51.4802 2.5008 46.5237V11.4762C2.5008 6.51974 6.576 2.47937 11.5752 2.47937H48.4008C53.4264 2.47937 57.4752 6.51974 57.4752 11.4762V46.4999C57.4992 51.4802 53.424 55.5205 48.4248 55.5205Z" fill="#2E001F"/>
<path d="M23.724 27.1404L30.7248 40.4751C30.8496 40.6726 30.7752 40.8724 30.5736 40.8724H26.2224C25.9464 40.8724 25.8216 40.7987 25.6968 40.5512C24.096 37.2794 22.4712 34.0076 20.796 30.4884H20.7456C19.2456 33.8101 17.5944 37.3056 15.996 40.5774C15.8712 40.7749 15.7464 40.851 15.5448 40.851H11.424C11.1744 40.851 11.148 40.6535 11.2752 40.5036L18.1248 27.564L11.5008 14.4768C11.3496 14.2793 11.5008 14.1294 11.6496 14.1294H15.9504C16.2 14.1294 16.3008 14.1794 16.3992 14.403C17.9736 17.6748 19.5744 21.0466 21.0744 24.3421H21.1248C22.5744 21.0703 24.1752 17.6748 25.7256 14.4268C25.8504 14.2293 25.9248 14.1056 26.1768 14.1056H30.2016C30.4008 14.1056 30.4776 14.2555 30.3528 14.453L23.724 27.1404ZM31.9512 31.1808C31.9512 25.4058 35.8272 20.8943 41.976 20.8943C42.5016 20.8943 42.7752 20.8943 43.2768 20.9442V14.3769C43.2768 14.2269 43.4016 14.1294 43.5264 14.1294H47.4768C47.676 14.1294 47.7264 14.2031 47.7264 14.3269V37.0819C47.7264 37.7506 47.7264 38.5929 47.8512 39.5114C47.8512 39.6613 47.8008 39.7089 47.652 39.785C45.552 40.7773 43.3512 41.2222 41.2512 41.2222C35.8248 41.2436 31.9488 37.9243 31.9512 31.1808ZM43.2744 24.8371C42.924 24.6872 42.4248 24.5896 41.8248 24.5896C38.6736 24.5896 36.4752 26.9929 36.4752 30.9857C36.4752 35.5471 38.7264 37.3817 41.5512 37.3817C42.1512 37.3817 42.8016 37.308 43.2768 37.1081V24.8371H43.2744Z" fill="#FFD9F2"/>
</svg>
