<svg width="39" height="58" fill="none" xmlns="http://www.w3.org/2000/svg"><g clip-path="url(#prefix__clip0)"><path d="M9.752 58c5.38 0 9.748-4.33 9.748-9.667v-9.666H9.752c-5.381 0-9.748 4.33-9.748 9.666S4.37 58 9.752 58z" fill="#0ACF83"/><path d="M.004 29c0-5.336 4.367-9.667 9.748-9.667H19.5v19.334H9.752C4.371 38.667.004 34.336.004 29z" fill="#A259FF"/><path d="M.004 9.667C.004 4.33 4.371 0 9.752 0H19.5v19.333H9.752c-5.38 0-9.748-4.33-9.748-9.666z" fill="#F24E1E"/><path d="M19.5 0h9.748c5.381 0 9.748 4.33 9.748 9.667 0 5.336-4.367 9.666-9.748 9.666H19.5V0z" fill="#FF7262"/><path d="M38.996 29c0 5.336-4.367 9.667-9.748 9.667-5.38 0-9.748-4.331-9.748-9.667 0-5.336 4.367-9.667 9.748-9.667 5.381 0 9.748 4.33 9.748 9.667z" fill="#1ABCFE"/></g><defs><clipPath id="prefix__clip0"><path fill="#fff" d="M0 0h39v58H0z"/></clipPath></defs></svg>
