<svg width="60" height="60" viewBox="0 0 60 60" fill="none" xmlns="http://www.w3.org/2000/svg">
<path d="M30 0C13.4315 0 0 13.4314 0 30C0 46.5686 13.4315 60 30 60C46.5686 60 60 46.5686 60 30C60 13.4314 46.5686 0 30 0ZM6.44624 30.3127L29.6872 53.5538C16.9253 53.3874 6.61253 43.0747 6.44624 30.3127ZM35.2726 52.9648L7.03516 24.7274C9.42957 14.2555 18.8021 6.44231 30 6.44231C37.8275 6.44231 44.7621 10.261 49.046 16.1359L45.7842 19.0139C42.3093 14.0306 36.5359 10.7692 30 10.7692C21.6785 10.7692 14.5921 16.055 11.9136 23.4519L36.5481 48.0865C42.5306 45.9201 47.1317 40.87 48.6726 34.6154H38.4616V30.0001H49.2308V29.9999H53.5577V30C53.5577 41.1979 45.7446 50.5704 35.2726 52.9648Z" fill="#744C9E"/>
</svg>
