<svg width="60" height="68" viewBox="0 0 60 68" fill="none" xmlns="http://www.w3.org/2000/svg">
<path d="M30 67.8738C29.0683 67.8738 28.1988 67.6244 27.3913 67.1879L19.1304 62.2618C17.8882 61.5759 18.5093 61.3265 18.882 61.2018C20.559 60.6406 20.8696 60.5159 22.6087 59.5182C22.795 59.3935 23.0435 59.4559 23.2298 59.5806L29.5652 63.3842C29.8137 63.509 30.1242 63.509 30.3106 63.3842L55.0932 48.9802C55.3416 48.8554 55.4658 48.606 55.4658 48.2942V19.5484C55.4658 19.2366 55.3416 18.9872 55.0932 18.8625L30.3106 4.52077C30.0621 4.39605 29.7516 4.39605 29.5652 4.52077L4.78261 18.8625C4.53416 18.9872 4.40994 19.299 4.40994 19.5484V48.2942C4.40994 48.5437 4.53416 48.8554 4.78261 48.9802L11.5528 52.9085C15.2174 54.7792 17.5155 52.5968 17.5155 50.4143V22.0426C17.5155 21.6685 17.8261 21.2944 18.2609 21.2944H21.4286C21.8012 21.2944 22.1739 21.6061 22.1739 22.0426V50.4143C22.1739 55.3404 19.5031 58.2088 14.8447 58.2088C13.4161 58.2088 12.2981 58.2088 9.13043 56.6499L2.6087 52.9085C0.993789 51.9732 0 50.2273 0 48.3566V19.6108C0 17.7401 0.993789 15.9942 2.6087 15.0588L27.3913 0.654731C28.9441 -0.218244 31.0559 -0.218244 32.6087 0.654731L57.3913 15.0588C59.0062 15.9942 60 17.7401 60 19.6108V48.3566C60 50.2273 59.0062 51.9732 57.3913 52.9085L32.6087 67.3126C31.8012 67.6868 30.8696 67.8738 30 67.8738ZM37.6398 48.1072C26.7702 48.1072 24.5342 43.1187 24.5342 38.8786C24.5342 38.5044 24.8447 38.1303 25.2795 38.1303H28.5093C28.882 38.1303 29.1925 38.3797 29.1925 38.7539C29.6894 42.0587 31.118 43.6799 37.7019 43.6799C42.9193 43.6799 45.1553 42.4952 45.1553 39.6892C45.1553 38.068 44.5342 36.8832 36.3975 36.0726C29.6273 35.3867 25.4037 33.8902 25.4037 28.4652C25.4037 23.4144 29.6273 20.4214 36.7081 20.4214C44.6584 20.4214 48.5714 23.165 49.0683 29.1511C49.0683 29.3382 49.0062 29.5253 48.882 29.7123C48.7578 29.8371 48.5714 29.9618 48.3851 29.9618H45.1553C44.8447 29.9618 44.5342 29.7123 44.472 29.4006C43.7267 25.971 41.8012 24.8486 36.7081 24.8486C30.9938 24.8486 30.3106 26.844 30.3106 28.3405C30.3106 30.1488 31.118 30.71 38.8199 31.7077C46.4596 32.7054 50.0621 34.1396 50.0621 39.5021C50 44.9894 45.5279 48.1072 37.6398 48.1072Z" fill="#539E43"/>
</svg>
