<svg width="60" height="64" viewBox="0 0 50 52" fill="none" xmlns="http://www.w3.org/2000/svg">
<path d="M49.8068 31.135C49.507 30.2194 48.7216 29.5817 47.706 29.4287C47.2271 29.3566 46.6786 29.3873 46.0296 29.5222C44.8984 29.7576 44.0591 29.8472 43.4466 29.8645C45.7585 25.9285 47.6384 21.44 48.7206 17.2148C50.4706 10.3828 49.5355 7.2704 48.4427 5.8626C45.5507 2.13631 41.3314 0.134512 36.2411 0.0732603C33.5257 0.0397788 31.1419 0.580406 29.8984 0.969186C28.7406 0.763176 27.4956 0.648157 26.1894 0.626887C23.7408 0.587497 21.5773 1.12576 19.7287 2.23203C18.7052 1.88303 17.0626 1.39105 15.1658 1.07711C10.7044 0.338552 7.10874 0.91404 4.47866 2.78762C1.2939 5.05609 -0.182471 8.99746 0.0905759 14.5022C0.177295 16.2499 1.14683 21.5676 2.67339 26.6107C3.55073 29.5094 4.48628 31.9165 5.45405 33.7659C6.82651 36.3883 8.29506 37.9326 9.9437 38.4872C10.8677 38.7976 12.5466 39.015 14.3124 37.532C14.5363 37.8053 14.8349 38.0769 15.2312 38.3292C15.7345 38.6493 16.3499 38.9108 16.9646 39.0658C19.1796 39.6242 21.2544 39.4845 23.0246 38.7018C23.0355 39.0193 23.0439 39.3226 23.0509 39.5846C23.0626 40.0094 23.0744 40.4259 23.0898 40.8155C23.1947 43.4495 23.3724 45.4976 23.899 46.9306C23.9279 47.0094 23.9667 47.1295 24.0078 47.257C24.2705 48.068 24.7097 49.4258 25.8273 50.4891C26.9845 51.5906 28.3843 51.9284 29.6663 51.9284C30.3093 51.9284 30.9228 51.8433 31.4609 51.7271C33.3788 51.3125 35.5572 50.6811 37.1329 48.4186C38.6228 46.2797 39.347 43.0582 39.4781 37.9822C39.4951 37.8386 39.5107 37.7015 39.5257 37.571L39.557 37.3027L39.9079 37.3338L39.9984 37.3399C41.9519 37.4297 44.3406 37.012 45.8075 36.3249C46.9667 35.7825 50.6814 33.8049 49.8068 31.135Z" fill="black"/>
<path d="M46.4662 31.6542C40.6576 32.8625 40.2582 30.8794 40.2582 30.8794C46.391 21.7029 48.9549 10.0547 46.7426 7.20384C40.7067 -0.572729 30.2584 3.10512 30.084 3.20044L30.028 3.21068C28.8803 2.9704 27.5961 2.82742 26.1526 2.80359C23.5244 2.76026 21.5307 3.49843 20.0178 4.65531C20.0178 4.65531 1.37914 -3.08758 2.24613 14.3933C2.43051 18.1121 7.53207 42.5322 13.6168 35.1562C15.8409 32.4589 17.9899 30.1785 17.9899 30.1785C19.0571 30.8934 20.3348 31.2581 21.6743 31.1272L21.7784 31.0381C21.7459 31.373 21.7608 31.7005 21.82 32.0883C20.2524 33.8543 20.7131 34.1643 17.5795 34.8149C14.4086 35.4739 16.2713 36.6469 17.4875 36.9537C18.962 37.3254 22.3729 37.852 24.6776 34.5986L24.5858 34.9699C25.1998 35.466 25.6311 38.1965 25.5588 40.672C25.4866 43.1472 25.4383 44.8467 25.9221 46.1742C26.4063 47.5016 26.8885 50.4883 31.008 49.5983C34.45 48.8544 36.2338 46.9269 36.4821 43.7115C36.658 41.4257 37.0567 41.7637 37.0817 39.7199L37.4014 38.7525C37.77 35.6539 37.46 34.6542 39.5805 35.1192L40.0961 35.1648C41.6567 35.2363 43.6996 34.9116 44.8987 34.3497C47.4803 33.1416 49.0116 31.1242 46.4659 31.6542H46.4662Z" fill="#336791"/>
<path d="M21.1088 16.0565C20.5853 15.983 20.1113 16.0509 19.8715 16.2341C19.7367 16.3371 19.6949 16.4565 19.6836 16.5386C19.6535 16.7562 19.8047 16.9969 19.8976 17.121C20.1605 17.4723 20.5445 17.7138 20.9246 17.767C20.9797 17.7748 21.0346 17.7784 21.089 17.7784C21.7228 17.7784 22.2992 17.2807 22.35 16.9134C22.4135 16.4533 21.7512 16.1467 21.1088 16.0567V16.0565ZM38.4494 16.071C38.3994 15.7104 37.7631 15.6076 37.1592 15.6923C36.556 15.777 35.9713 16.0515 36.0201 16.4129C36.0592 16.694 36.5625 17.1738 37.1582 17.1738C37.2086 17.1738 37.2594 17.1704 37.3105 17.1631C37.7082 17.1076 38 16.8529 38.1387 16.7062C38.3496 16.4825 38.4719 16.2331 38.4494 16.071Z" fill="white"/>
<path d="M48.3982 31.517C48.1767 30.8416 47.4638 30.6244 46.2795 30.871C42.7629 31.6028 41.5035 31.0959 41.09 30.7888C43.8234 26.5899 46.0721 21.5141 47.2851 16.7784C47.8597 14.5351 48.1771 12.4518 48.2031 10.7537C48.2318 8.88996 47.917 7.52037 47.2678 6.68373C44.6502 3.31096 40.8084 1.50178 36.158 1.45215C32.9609 1.41591 30.2597 2.24093 29.7361 2.47294C28.6334 2.19642 27.4312 2.02665 26.1224 2.00498C23.7224 1.96579 21.6478 2.54522 19.9302 3.72633C19.1841 3.44627 17.256 2.7788 14.898 2.39573C10.8215 1.73398 7.582 2.23542 5.27028 3.88684C2.51188 5.85752 1.23844 9.38017 1.48512 14.3567C1.56813 16.031 2.51422 21.1816 4.00719 26.1142C5.97243 32.6065 8.10876 36.2818 10.3564 37.0379C10.6195 37.1263 10.9228 37.1881 11.2574 37.1881C12.0773 37.1881 13.0826 36.8155 14.1285 35.5475C15.4042 34.0043 16.7238 32.4986 18.0857 31.0323C18.9693 31.5105 19.94 31.7775 20.9328 31.8043C20.9347 31.8305 20.9373 31.8567 20.9396 31.8827C20.7687 32.0882 20.6014 32.2967 20.4377 32.508C19.7498 33.3886 19.6066 33.5719 17.3924 34.0316C16.7625 34.1628 15.0896 34.5104 15.065 35.6929C15.0384 36.9849 17.0425 37.5275 17.2709 37.585C18.0666 37.7859 18.8332 37.8849 19.5642 37.8849C21.3422 37.8849 22.9068 37.2957 24.1572 36.1555C24.1187 40.7614 24.3092 45.2999 24.8576 46.6827C25.3068 47.8148 26.4041 50.5813 29.8701 50.5811C30.3787 50.5811 30.9385 50.5215 31.5543 50.3883C35.1717 49.6064 36.7426 47.9942 37.3502 44.4398C37.6754 42.5402 38.2334 38.0043 38.4959 35.5712C39.0498 35.7455 39.7629 35.8252 40.5338 35.825C42.1416 35.825 43.9969 35.4806 45.1603 34.936C46.4674 34.3239 48.826 32.8219 48.3982 31.517ZM39.7838 15.0756C39.7719 15.7938 39.6738 16.4459 39.5699 17.1266C39.458 17.8587 39.3424 18.6156 39.3133 19.5343C39.2845 20.4285 39.3953 21.3581 39.5023 22.2572C39.7187 24.073 39.9408 25.9425 39.0812 27.7871C38.9384 27.532 38.8113 27.2683 38.7004 26.9975C38.5935 26.7364 38.3615 26.3169 38.0402 25.7363C36.7904 23.4761 33.8636 18.1832 35.3619 16.0235C35.8082 15.3806 36.9408 14.7197 39.7838 15.0756ZM36.3377 2.90662C40.5045 2.99939 43.8006 4.57124 46.1342 7.57828C47.924 9.88476 45.9531 20.3796 40.2474 29.4336C40.1901 29.36 40.1324 29.2867 40.0744 29.2136L40.0021 29.1226C41.4765 26.6673 41.1883 24.2379 40.9316 22.084C40.8261 21.2001 40.7265 20.3653 40.7519 19.581C40.7781 18.7499 40.8871 18.0369 40.9926 17.3476C41.122 16.4981 41.2539 15.6192 41.2176 14.583C41.2447 14.4743 41.2556 14.3459 41.2414 14.1934C41.1486 13.1998 40.0236 10.2261 37.7306 7.53455C36.4763 6.06235 34.6472 4.41487 32.1498 3.30367C33.224 3.07915 34.6929 2.86979 36.3377 2.90662ZM13.0216 34.6195C11.8693 36.0167 11.0736 35.7488 10.8119 35.661C9.1068 35.0875 7.12829 31.4533 5.38395 25.6906C3.87457 20.7042 2.99254 15.6901 2.92262 14.284C2.70231 9.83729 3.77125 6.73828 6.09997 5.07288C9.88981 2.36284 16.1207 3.98492 18.6244 4.80758C18.5884 4.84343 18.5509 4.87691 18.5154 4.91335C14.4068 9.09735 14.5043 16.2458 14.5144 16.6829C14.514 16.8515 14.5281 17.0902 14.5472 17.4185C14.6179 18.6209 14.7496 20.8586 14.398 23.3928C14.0715 25.7477 14.7914 28.0526 16.3728 29.7166C16.5351 29.8871 16.7057 30.0493 16.884 30.2027C16.18 30.9629 14.6502 32.6441 13.0216 34.6195ZM17.4121 28.7124C16.1375 27.3712 15.5586 25.5056 15.8236 23.5937C16.1947 20.9167 16.0578 18.5852 15.9841 17.3326C15.9738 17.1573 15.9646 17.0037 15.9593 16.8826C16.5595 16.3459 19.341 14.8432 21.3246 15.3015C22.2297 15.5104 22.7812 16.132 23.0105 17.2011C24.1972 22.7359 23.1676 25.0428 22.3402 26.8967C22.1697 27.2786 22.0086 27.6396 21.8711 28.013L21.7644 28.3017C21.4945 29.0316 21.2433 29.7103 21.0877 30.3548C19.7326 30.3508 18.4144 29.7671 17.4121 28.7122V28.7124ZM17.6201 36.1768C17.2244 36.0771 16.8685 35.904 16.6597 35.7604C16.8341 35.6777 17.1445 35.5651 17.6828 35.4532C20.2877 34.9126 20.69 34.5309 21.5685 33.4061C21.7699 33.1481 21.9982 32.8558 22.3144 32.4997L22.3148 32.4993C22.7857 31.9676 23.0011 32.0578 23.3918 32.2213C23.7084 32.3532 24.0168 32.7534 24.1418 33.1938C24.2009 33.4018 24.2674 33.7965 24.05 34.1037C22.2148 36.6948 19.5406 36.6615 17.6201 36.1768ZM31.2527 48.9691C28.066 49.6576 26.9377 48.018 26.1941 46.1436C25.7142 44.9336 25.4783 39.4769 25.6457 33.4508C25.6478 33.3706 25.6365 33.2932 25.6146 33.2204C25.5951 33.0765 25.5653 32.9342 25.5256 32.7946C25.2767 31.9177 24.6703 31.1843 23.9427 30.8802C23.6537 30.7595 23.1232 30.5379 22.4857 30.7024C22.6217 30.1375 22.8574 29.4996 23.1131 28.8089L23.2203 28.5184C23.341 28.1909 23.4926 27.8515 23.6527 27.4923C24.5185 25.5527 25.7043 22.8961 24.4174 16.8944C23.9353 14.6464 22.3256 13.5486 19.8853 13.8037C18.4224 13.9563 17.084 14.5515 16.4164 14.8928C16.2728 14.9661 16.1416 15.037 16.0189 15.1059C16.2052 12.841 16.9091 8.60813 19.5424 5.93C21.2004 4.24411 23.4084 3.4114 26.0986 3.45631C31.3994 3.54376 34.7986 6.28687 36.717 8.57287C38.3701 10.5426 39.2652 12.5268 39.6224 13.5971C36.9359 13.3215 35.1088 13.8563 34.1826 15.1916C32.1676 18.0962 35.2849 23.7337 36.7832 26.4431C37.058 26.9396 37.2951 27.3688 37.3697 27.5512C37.8576 28.7435 38.4892 29.5396 38.9504 30.1206C39.0918 30.2986 39.2289 30.4713 39.3332 30.6222C38.5195 30.8587 37.058 31.4053 37.1912 34.1372C37.0838 35.5079 36.3199 41.9258 35.9318 44.1933C35.4195 47.1889 34.3263 48.3046 31.2527 48.9693V48.9691ZM44.5543 33.6196C43.7222 34.009 42.3299 34.301 41.0072 34.3639C39.5463 34.4328 38.8025 34.1988 38.6275 34.0549C38.5455 32.3524 39.1738 32.1746 39.8388 31.9863C39.9433 31.9567 40.0453 31.9278 40.1437 31.8931C40.2049 31.9434 40.2719 31.9932 40.3453 32.042C41.5195 32.8235 43.6138 32.9078 46.5707 32.2924L46.6031 32.2859C46.2043 32.6618 45.5219 33.1664 44.5543 33.6196Z" fill="white"/>
</svg>
