<svg width="36" height="63" viewBox="0 0 36 63" fill="none" xmlns="http://www.w3.org/2000/svg">
<rect x="1" y="1" width="34" height="61" rx="6" fill="black" stroke="black" stroke-width="2"/>
<path d="M18 58C18.7956 58 19.5587 57.6839 20.1213 57.1213C20.6839 56.5587 21 55.7956 21 55C21 54.2044 20.6839 53.4413 20.1213 52.8787C19.5587 52.3161 18.7956 52 18 52C17.2044 52 16.4413 52.3161 15.8787 52.8787C15.3161 53.4413 15 54.2044 15 55C15 55.7956 15.3161 56.5587 15.8787 57.1213C16.4413 57.6839 17.2044 58 18 58Z" fill="white"/>
<path d="M26.3772 21.4548C26.1005 21.3604 25.8214 21.2729 25.5403 21.1925C25.5875 21.0007 25.631 20.8111 25.6696 20.6249C26.3031 17.5671 25.889 15.1037 24.4743 14.2926C23.1179 13.5151 20.8997 14.3258 18.6594 16.2644C18.4387 16.4558 18.2228 16.6527 18.012 16.8549C17.8709 16.7204 17.7273 16.5886 17.5813 16.4594C15.2333 14.3866 12.8799 13.5131 11.4668 14.3265C10.1116 15.1064 9.71037 17.4222 10.2807 20.3201C10.3375 20.6072 10.4016 20.8927 10.4729 21.1765C10.1398 21.2706 9.81833 21.3707 9.5107 21.4774C6.75795 22.4316 5 23.9271 5 25.4782C5 27.0803 6.88723 28.6872 9.75434 29.6615C9.98679 29.7402 10.2212 29.8131 10.4573 29.8802C10.3806 30.1858 10.3125 30.4935 10.2531 30.8029C9.70935 33.6506 10.134 35.9116 11.4855 36.6867C12.8814 37.487 15.2242 36.6644 17.5054 34.6817C17.6904 34.5205 17.8713 34.3547 18.0479 34.1846C18.2762 34.4035 18.5106 34.6162 18.7507 34.8222C20.9605 36.7127 23.1429 37.4761 24.4931 36.699C25.8876 35.8963 26.3409 33.4673 25.7525 30.5121C25.7061 30.2806 25.6541 30.0502 25.5966 29.8212C25.7611 29.7727 25.9226 29.7228 26.08 29.6709C29.0607 28.6891 31 27.1017 31 25.4782C31 23.9214 29.1853 22.4159 26.3772 21.4548V21.4548ZM25.7307 28.6228C25.5885 28.6695 25.4427 28.7147 25.294 28.7586C24.965 27.7228 24.5209 26.6215 23.9775 25.4836C24.496 24.3728 24.923 23.2855 25.2428 22.2565C25.5088 22.3331 25.7669 22.4138 26.0157 22.4989C28.4217 23.3225 29.8893 24.54 29.8893 25.4782C29.8893 26.4775 28.3043 27.7748 25.7307 28.6228V28.6228ZM24.6629 30.7266C24.9231 32.0333 24.9602 33.2147 24.7878 34.1384C24.633 34.9684 24.3217 35.5216 23.9365 35.7433C23.1172 36.2149 21.365 35.6019 19.4752 33.985C19.2518 33.7935 19.0338 33.5958 18.8214 33.3923C19.5541 32.5956 20.2863 31.6695 21.0009 30.641C22.2578 30.5301 23.4453 30.3487 24.5221 30.1012C24.5752 30.314 24.6223 30.5226 24.6629 30.7266V30.7266ZM13.864 35.6618C13.0635 35.9428 12.4258 35.9509 12.0404 35.73C11.2203 35.2597 10.8794 33.4442 11.3444 31.0089C11.3997 30.7212 11.463 30.435 11.5342 30.1507C12.5992 30.385 13.778 30.5534 15.0379 30.655C15.7574 31.6615 16.5107 32.5865 17.2699 33.3966C17.1085 33.5518 16.9434 33.7031 16.7745 33.8502C15.7657 34.7269 14.7549 35.349 13.864 35.6618V35.6618ZM10.1137 28.6166C8.84587 28.1857 7.79886 27.6258 7.08122 27.0147C6.4363 26.4657 6.11079 25.9205 6.11079 25.4782C6.11079 24.5369 7.5222 23.3362 9.87632 22.5202C10.162 22.4212 10.461 22.3278 10.7713 22.2402C11.0967 23.2924 11.5235 24.3926 12.0385 25.5051C11.5168 26.6341 11.0839 27.7518 10.7553 28.8164C10.5398 28.7551 10.3259 28.6884 10.1137 28.6166V28.6166ZM11.3708 20.108C10.8822 17.6252 11.2067 15.7523 12.0234 15.2822C12.8931 14.7816 14.8165 15.4954 16.8438 17.2852C16.976 17.4022 17.1061 17.5215 17.2339 17.6432C16.4785 18.4497 15.7321 19.3679 15.019 20.3684C13.7962 20.4811 12.6257 20.6621 11.5496 20.9045C11.4833 20.6406 11.4237 20.375 11.3708 20.1081V20.108ZM22.5861 22.8615C22.3319 22.425 22.0683 21.9939 21.7954 21.5687C22.625 21.673 23.4198 21.8114 24.1662 21.9807C23.9421 22.6948 23.6628 23.4414 23.3341 24.2068C23.0938 23.7535 22.8444 23.3049 22.5861 22.8615V22.8615ZM18.0125 18.4324C18.5248 18.9843 19.0379 19.6004 19.5425 20.2688C18.5188 20.2208 17.4933 20.2206 16.4696 20.2682C16.9747 19.6059 17.4922 18.9906 18.0125 18.4324ZM13.4096 22.8691C13.1545 23.309 12.9098 23.7547 12.6756 24.2059C12.3522 23.4432 12.0755 22.6932 11.8495 21.969C12.5913 21.804 13.3824 21.669 14.2066 21.5667C13.9307 21.9945 13.665 22.4287 13.4096 22.869V22.8691ZM14.2303 29.4684C13.3787 29.3739 12.5758 29.2459 11.8341 29.0854C12.0637 28.3482 12.3465 27.5823 12.6769 26.8032C12.912 27.2547 13.1578 27.7007 13.4139 28.1408C13.6774 28.5932 13.9502 29.0363 14.2303 29.4684ZM18.0432 32.6018C17.5167 32.0371 16.9916 31.4123 16.4788 30.7404C16.9767 30.7598 17.4842 30.7697 18 30.7697C18.53 30.7697 19.0538 30.7579 19.5694 30.7351C19.0632 31.4191 18.552 32.0448 18.0432 32.6018ZM23.3445 26.7634C23.6921 27.5511 23.985 28.313 24.2176 29.0375C23.4638 29.2085 22.6498 29.3463 21.7922 29.4486C22.067 29.0154 22.3332 28.5769 22.5904 28.1332C22.852 27.6822 23.1034 27.2255 23.3445 26.7634V26.7634ZM21.6283 27.5815C21.2345 28.2617 20.8185 28.929 20.381 29.5824C19.5886 29.6382 18.7944 29.6659 18 29.6655C17.1909 29.6655 16.4038 29.6404 15.646 29.5916C15.1971 28.9397 14.7732 28.2712 14.3751 27.5875H14.3752C13.9791 26.9074 13.609 26.2126 13.2659 25.5046C13.6081 24.7964 13.9771 24.1013 14.3719 23.4207L14.3718 23.4208C14.7665 22.74 15.187 22.0743 15.6325 21.4253C16.4057 21.3671 17.1986 21.3368 17.9999 21.3368H18C18.805 21.3368 19.5989 21.3674 20.3719 21.426C20.8129 22.0741 21.2307 22.7374 21.6247 23.4148C22.0208 24.0939 22.3946 24.7857 22.7455 25.4889C22.3982 26.1994 22.0256 26.8974 21.6283 27.5815V27.5815ZM23.9196 15.2493C24.7902 15.7486 25.1288 17.7618 24.5818 20.4019C24.5468 20.5704 24.5076 20.7419 24.465 20.9159C23.3862 20.6683 22.2148 20.4842 20.9885 20.3698C20.2741 19.3583 19.5338 18.4387 18.7907 17.6425C18.9854 17.4559 19.1848 17.2741 19.3887 17.0973C21.3082 15.4364 23.1022 14.7807 23.9196 15.2493V15.2493ZM18 23.1698C19.2822 23.1698 20.3217 24.2034 20.3217 25.4782C20.3217 26.7531 19.2822 27.7866 18 27.7866C16.7178 27.7866 15.6783 26.7531 15.6783 25.4782C15.6783 24.2034 16.7178 23.1698 18 23.1698V23.1698Z" fill="white"/>
</svg>
