<svg width="64" height="57" viewBox="0 0 64 57" fill="none" xmlns="http://www.w3.org/2000/svg">
<path d="M52.6208 18.4561C51.9396 18.2224 51.2528 18.0059 50.5607 17.8068C50.677 17.3318 50.784 16.8626 50.879 16.4016C52.4385 8.83133 51.419 2.73258 47.9367 0.724578C44.598 -1.20042 39.1377 0.806828 33.6232 5.60608C33.0798 6.07991 32.5484 6.5674 32.0295 7.06808C31.6822 6.73514 31.3287 6.40867 30.9692 6.08883C25.1897 0.957329 19.3967 -1.20542 15.9183 0.808329C12.5825 2.73933 11.5947 8.47258 12.9987 15.6471C13.1384 16.3576 13.2962 17.0645 13.4718 17.7671C12.6518 18.0001 11.8605 18.2481 11.1032 18.5121C4.32725 20.8746 0 24.5768 0 28.4171C0 32.3833 4.6455 36.3616 11.703 38.7738C12.2752 38.9686 12.8521 39.1491 13.4333 39.3151C13.2445 40.0718 13.0769 40.8335 12.9307 41.5996C11.5922 48.6496 12.6375 54.2473 15.9642 56.1661C19.4002 58.1476 25.1672 56.1111 30.7825 51.2023C31.2378 50.8033 31.6831 50.3929 32.118 49.9716C32.6799 50.5137 33.2568 51.0401 33.848 51.5501C39.2875 56.2306 44.6595 58.1206 47.983 56.1966C51.4158 54.2093 52.5315 48.1958 51.083 40.8796C50.9689 40.3064 50.8409 39.7361 50.6992 39.1691C51.1042 39.0491 51.5018 38.9256 51.8893 38.7971C59.2263 36.3663 64 32.4363 64 28.4171C64 24.5628 59.533 20.8356 52.6208 18.4561V18.4561ZM51.0295 36.2021C50.6795 36.3178 50.3205 36.4296 49.9545 36.5383C49.1445 33.9741 48.0515 31.2476 46.7137 28.4303C47.9902 25.6803 49.0412 22.9886 49.8285 20.4411C50.4832 20.6306 51.1185 20.8303 51.731 21.0411C57.6535 23.0801 61.266 26.0943 61.266 28.4171C61.266 30.8911 57.3645 34.1028 51.0295 36.2021V36.2021ZM48.401 41.4106C49.0415 44.6456 49.1327 47.5706 48.7085 49.8573C48.3275 51.9121 47.561 53.2818 46.613 53.8306C44.5962 54.9981 40.283 53.4806 35.6312 49.4776C35.0813 49.0034 34.5447 48.5141 34.022 48.0101C35.8255 46.0378 37.6277 43.7451 39.3867 41.1986C42.4807 40.9241 45.4038 40.4751 48.0545 39.8623C48.185 40.3891 48.301 40.9056 48.401 41.4106V41.4106ZM21.819 53.6288C19.8485 54.3246 18.279 54.3446 17.3302 53.7976C15.3115 52.6333 14.4722 48.1386 15.617 42.1096C15.7531 41.3971 15.9089 40.6886 16.0842 39.9848C18.7057 40.5648 21.6075 40.9818 24.7087 41.2333C26.4797 43.7251 28.334 46.0153 30.2027 48.0208C29.8056 48.4051 29.3991 48.7796 28.9835 49.1438C26.5002 51.3143 24.012 52.8543 21.819 53.6288V53.6288ZM12.5875 36.1868C9.46675 35.1201 6.8895 33.7338 5.123 32.2211C3.5355 30.8618 2.73425 29.5121 2.73425 28.4171C2.73425 26.0866 6.2085 23.1141 12.0033 21.0938C12.7065 20.8488 13.4425 20.6176 14.2063 20.4006C15.0073 23.0056 16.0578 25.7293 17.3255 28.4836C16.0413 31.2786 14.9757 34.0458 14.167 36.6816C13.6365 36.5296 13.1099 36.3647 12.5875 36.1868V36.1868ZM15.682 15.1218C14.4793 8.97508 15.278 4.33833 17.2882 3.17458C19.4293 1.93508 24.1637 3.70233 29.154 8.13333C29.4794 8.42292 29.7995 8.71839 30.1143 9.01958C28.2548 11.0163 26.4175 13.2896 24.6623 15.7666C21.6523 16.0456 18.771 16.4936 16.122 17.0938C15.9588 16.4404 15.8121 15.7829 15.682 15.1221V15.1218ZM43.2887 21.9388C42.6631 20.8581 42.0142 19.7909 41.3425 18.7381C43.3845 18.9963 45.341 19.3391 47.1782 19.7581C46.6267 21.5261 45.9393 23.3743 45.13 25.2693C44.5385 24.147 43.9246 23.0366 43.2887 21.9388V21.9388ZM32.0308 10.9736C33.2918 12.3398 34.5548 13.8651 35.797 15.5201C33.277 15.4011 30.7528 15.4006 28.2327 15.5186C29.4762 13.8788 30.75 12.3556 32.0308 10.9736ZM20.7005 21.9576C20.0726 23.0465 19.4702 24.15 18.8937 25.2671C18.0977 23.3788 17.4165 21.5221 16.8603 19.7291C18.6863 19.3206 20.6335 18.9866 22.6625 18.7331C21.9834 19.7923 21.3292 20.8674 20.7005 21.9573V21.9576ZM22.7208 38.2956C20.6245 38.0616 18.648 37.7448 16.8225 37.3473C17.3875 35.5223 18.0837 33.6261 18.897 31.6973C19.4757 32.8152 20.0806 33.9194 20.7113 35.0088C21.3598 36.1288 22.0313 37.2258 22.7208 38.2956ZM32.1063 46.0531C30.8103 44.6551 29.5178 43.1083 28.2555 41.4448C29.481 41.4928 30.7303 41.5173 32 41.5173C33.3045 41.5173 34.594 41.4881 35.8633 41.4316C34.617 43.1251 33.3588 44.6741 32.1063 46.0531ZM45.1558 31.5988C46.0113 33.5488 46.7322 35.4351 47.3047 37.2288C45.4492 37.6523 43.4458 37.9933 41.3348 38.2466C42.0112 37.1742 42.6662 36.0885 43.2995 34.9901C43.9433 33.8736 44.5622 32.7429 45.1558 31.5988V31.5988ZM40.9313 33.6241C39.9618 35.3082 38.9378 36.9603 37.861 38.5778C35.9104 38.716 33.9555 38.7846 32 38.7836C30.0082 38.7836 28.071 38.7216 26.2055 38.6006C25.1006 36.9868 24.0571 35.3318 23.0772 33.6391H23.0775C22.1023 31.9554 21.1914 30.2352 20.3468 28.4823C21.1892 26.7291 22.0974 25.0081 23.0693 23.3231L23.069 23.3233C24.0405 21.6379 25.0757 19.9899 26.1723 18.3831C28.0755 18.2391 30.0273 18.1641 31.9998 18.1641H32C33.9815 18.1641 35.9358 18.2398 37.8385 18.3848C38.924 19.9893 39.9526 21.6316 40.9222 23.3086C41.8974 24.9899 42.8175 26.7024 43.6813 28.4436C42.8264 30.2025 41.9091 31.9304 40.9313 33.6241V33.6241ZM46.5713 3.09308C48.7143 4.32908 49.5477 9.31333 48.2012 15.8496C48.1152 16.2666 48.0187 16.6913 47.9137 17.1221C45.2582 16.5091 42.375 16.0533 39.3563 15.7701C37.5978 13.2658 35.7755 10.9891 33.9463 9.01808C34.4257 8.55596 34.9165 8.10582 35.4183 7.66808C40.1433 3.55633 44.5593 1.93283 46.5713 3.09308V3.09308ZM32 22.7021C35.1562 22.7021 37.715 25.2608 37.715 28.4171C37.715 31.5733 35.1562 34.1321 32 34.1321C28.8438 34.1321 26.285 31.5733 26.285 28.4171C26.285 25.2608 28.8438 22.7021 32 22.7021V22.7021Z" fill="#00D8FF"/>
</svg>
