<svg width="60" height="60" viewBox="0 0 60 60" fill="none" xmlns="http://www.w3.org/2000/svg">
<g clip-path="url(#clip0_1236_95)">
<path d="M0 30V0H60V60H0" fill="#007ACC"/>
<path d="M13.155 30.105V32.55H20.955V54.75H26.49V32.55H34.29V30.15C34.29 28.8 34.29 27.705 34.23 27.675C34.23 27.63 29.475 27.615 23.7 27.615L13.2 27.66V30.12L13.155 30.105ZM48.21 27.6C49.74 27.96 50.91 28.65 51.96 29.745C52.515 30.345 53.34 31.395 53.4 31.665C53.4 31.755 50.805 33.51 49.23 34.485C49.17 34.53 48.93 34.275 48.69 33.885C47.91 32.775 47.115 32.295 45.87 32.205C44.07 32.085 42.87 33.03 42.87 34.605C42.87 35.085 42.96 35.355 43.14 35.745C43.545 36.57 44.295 37.065 46.62 38.085C50.91 39.93 52.77 41.145 53.895 42.885C55.17 44.835 55.455 47.895 54.6 50.19C53.64 52.695 51.3 54.39 47.955 54.945C46.905 55.125 44.505 55.095 43.38 54.9C40.98 54.45 38.685 53.25 37.275 51.705C36.72 51.105 35.655 49.5 35.715 49.395L36.285 49.035L38.535 47.73L40.23 46.74L40.62 47.265C41.115 48.045 42.225 49.095 42.87 49.455C44.82 50.46 47.43 50.325 48.72 49.155C49.275 48.645 49.515 48.105 49.515 47.355C49.515 46.665 49.41 46.35 49.065 45.825C48.585 45.165 47.625 44.625 44.925 43.425C41.82 42.105 40.5 41.265 39.27 39.975C38.565 39.195 37.92 37.98 37.62 36.975C37.395 36.105 37.32 33.975 37.53 33.12C38.175 30.12 40.44 28.02 43.68 27.42C44.73 27.21 47.205 27.3 48.24 27.57L48.21 27.6Z" fill="white"/>
</g>
<defs>
<clipPath id="clip0_1236_95">
<rect width="60" height="60" fill="white"/>
</clipPath>
</defs>
</svg>
